<?xml version="1.0" encoding="UTF-8"?>
<svg width="22px" height="20px" viewBox="0 0 22 20" version="1.1" xmlns="http://www.w3.org/2000/svg" xmlns:xlink="http://www.w3.org/1999/xlink">
    <title>cart@1,5x</title>
    <g id="App" stroke="none" stroke-width="1" fill="none" fill-rule="evenodd">
        <g id="App-01" transform="translate(-325.000000, -73.000000)" fill="#FFFFFF" fill-rule="nonzero">
            <g id="Group" transform="translate(316.000000, 63.000000)">
                <g id="cart" transform="translate(9.000000, 10.000000)">
                    <path d="M8,18 C8,19.1046667 7.10466667,20 6,20 C4.89533333,20 4,19.1046667 4,18 C4,16.8953333 4.89533333,16 6,16 C7.10466667,16 8,16.8953333 8,18 Z" id="Path"></path>
                    <path d="M21.3333333,18 C21.3333333,19.1046667 20.438,20 19.3333333,20 C18.2286667,20 17.3333333,19.1046667 17.3333333,18 C17.3333333,16.8953333 18.2286667,16 19.3333333,16 C20.438,16 21.3333333,16.8953333 21.3333333,18 Z" id="Path"></path>
                    <path d="M21.3333333,9.33333333 L21.3333333,1.33333333 L5.33333333,1.33333333 C5.33333333,0.596666667 4.73666667,-1.18423789e-15 4,-1.18423789e-15 L0,-1.18423789e-15 L0,1.33333333 L2.66666667,1.33333333 L3.668,9.918 C3.058,10.4066667 2.66666667,11.1573333 2.66666667,12 C2.66666667,13.4726667 3.86066667,14.6666667 5.33333333,14.6666667 L21.3333333,14.6666667 L21.3333333,13.3333333 L5.33333333,13.3333333 C4.59666667,13.3333333 4,12.7366667 4,12 C4,11.9953333 4,11.9906667 4,11.9866667 L21.3333333,9.33333333 L21.3333333,9.33333333 Z" id="Path"></path>
                </g>
            </g>
        </g>
    </g>
</svg>